<svg xmlns="http://www.w3.org/2000/svg" viewBox="0 0 2000 2000"><defs><style>.cls-1{fill:none;}.cls-2{fill:#e2974b;}.cls-3{fill:#c68543;}.cls-4{fill:#eab177;}.cls-5{fill:#fffef6;}.cls-6{fill:#6e3b0c;}.cls-7{fill:#e09ab3;}.cls-8{fill:#f19eb5;}.cls-9{fill:#e0918f;}.cls-10{fill:#f29c99;}.cls-11{fill:#1a171b;}.cls-12{fill:#ce8684;}.cls-13{fill:#eceded;}.cls-14{fill:#fff;}</style></defs><rect class="cls-1" width="2000" height="2000"/><path class="cls-2" d="M1496.33,1598.07q-13.17,6.26-27.06,11.8c-18.28-55.27-70.43-95.27-131.75-95.27h-18.21c-76.5,0-138.74,62.24-138.74,138.74a66.24,66.24,0,0,0,1,11.07c-59.55,3.69-120.8,4.68-181.52,4.68s-122-1-181.52-4.68a66.26,66.26,0,0,0,.95-11.08c0-76.49-62.24-138.73-138.74-138.73H662.48c-61.32,0-113.46,40-131.75,95.27q-13.86-5.56-27.06-11.8c-65.79-31.28-113.89-73.56-147.06-129.27-36.41-61.17-54.11-137-54.11-231.71,0-150.89,47-327.89,129-487a208.13,208.13,0,0,0,96.16,33.36c-5.61,4.09-11,8.39-16.24,12.88a8.53,8.53,0,0,0,10.85,13.15h0a221.6,221.6,0,0,1,24.17-16.68,198.69,198.69,0,0,1,26.1-13c18-7.4,37.21-12.37,56.72-16.37l.1,0,.45-.11a7.12,7.12,0,0,0,2.08-.85c.35-.18.71-.36,1.05-.58a11.26,11.26,0,0,0,3.26-15.58,95,95,0,0,0-35.32-31.75,176.22,176.22,0,0,1,47.17.77,11.25,11.25,0,0,0,11.1-17.29c-26.87-40.93-69.67-71-116.92-84.09a368,368,0,0,1,149,.9,11.26,11.26,0,0,0,12.38-16.17,170,170,0,0,0-35.1-46.17A278,278,0,0,1,733.41,579a11.25,11.25,0,0,0,15.37-15.27l-37-66.35a210.42,210.42,0,0,1,87.6,61.19l0,0a8.53,8.53,0,0,0,13.22-10.77A229.14,229.14,0,0,0,736,485.06v0c-12.72-18.93-30.38-40.18-49.06-59.33,47.18-37.7,96.14-67.1,145.67-87.42,55.28-22.7,111.61-34.2,167.4-34.2,55.42,0,111.38,11.35,166.3,33.75,49.17,20,97.79,49,144.67,86.2a222.36,222.36,0,0,0-45.69,60.36h0a229.23,229.23,0,0,0-77.84,63.46,8.52,8.52,0,0,0,13.23,10.75h0a210.48,210.48,0,0,1,87.6-61.19l-37,66.35A11.25,11.25,0,0,0,1266.59,579a278,278,0,0,1,64.84-26.51,170.23,170.23,0,0,0-35.1,46.17,11.26,11.26,0,0,0,12.38,16.17,368,368,0,0,1,149-.9c-47.24,13.11-90,43.16-116.92,84.09a11.25,11.25,0,0,0,11.1,17.29,176.22,176.22,0,0,1,47.17-.77,94.87,94.87,0,0,0-35.31,31.75,11.25,11.25,0,0,0,3.25,15.58,11,11,0,0,0,1.8.93,6.14,6.14,0,0,0,1.15.43l.14,0c.18.05.34.11.53.15h.06c19.51,4,38.69,9,56.72,16.37a198.69,198.69,0,0,1,26.1,13,221.6,221.6,0,0,1,24.17,16.68l0,0a8.53,8.53,0,0,0,10.83-13.17q-7.9-6.83-16.45-13c33.82-3.21,66.18-15.23,95.18-35.52,82.81,159.76,130.2,337.53,130.2,489.3,0,94.75-17.7,170.54-54.11,231.71C1610.22,1524.51,1562.12,1566.79,1496.33,1598.07Z"/><path class="cls-3" d="M1188.1,1608.24c-4.32.7-6.65,1.25-6.58,1.68-59.55,3.68-120.8-30.36-181.52-30.36s-122,34-181.52,30.36c.06-.38-2.27-.89-6.53-1.53a138.19,138.19,0,0,1,7.48,44.94,66.26,66.26,0,0,1-.95,11.08c59.55,3.69,120.8,4.68,181.52,4.68s122-1,181.52-4.68a66.24,66.24,0,0,1-1-11.07A138.33,138.33,0,0,1,1188.1,1608.24Z"/><path class="cls-3" d="M1643.39,1414.3c-33.17,55.71-81.27,98-147.06,129.27q-13.17,6.26-27.06,11.8c-8.59,2.76-17.4,5.37-26.35,7.87a138.68,138.68,0,0,1,26.35,46.63q13.86-5.56,27.06-11.8c65.79-31.28,113.89-73.56,147.06-129.27C1679.8,1407.63,1676.25,1359.1,1643.39,1414.3Z"/><path class="cls-3" d="M530.73,1555.37q-13.86-5.56-27.06-11.8c-65.79-31.28-113.89-73.56-147.06-129.27-32.86-55.2-36.41-6.67,0,54.5,33.17,55.71,81.27,98,147.06,129.27q13.17,6.26,27.06,11.8a138.6,138.6,0,0,1,24.69-44.62A181.09,181.09,0,0,1,530.73,1555.37Z"/><path class="cls-4" d="M1537.89,762.33c76.43,147.44,112.22,145.22,29.41-14.54-29,20.29-61.36,32.31-95.18,35.52"/><path class="cls-4" d="M832.6,409.21C887.88,386.52,944.21,375,1000,375c55.42,0,111.38,11.35,166.3,33.74,36.57,14.91,72.83,34.77,108.3,59.26A227.35,227.35,0,0,1,1311,424c-46.88-37.17-95.5-66.16-144.67-86.2-54.92-22.4-110.88-33.75-166.3-33.75-55.79,0-112.12,11.5-167.4,34.2-49.53,20.32-98.49,49.72-145.67,87.42a480.33,480.33,0,0,1,37.37,43.08C759.76,444.2,796,424.23,832.6,409.21Z"/><path class="cls-4" d="M431.51,750.1c-82,159.1-45.09,160,30.6,13.21"/><path class="cls-5" d="M1274.39,943.25c-1,0-2,0-3,0a100.58,100.58,0,0,1-101.61-100.59V727.6c0-31.22-17.81-61.93-32.15-90.57a14.52,14.52,0,0,0-17.06-7.26c-13.54,3.78-31-4.3-38.4-17.46a54.93,54.93,0,0,1-6.33-19.2,14.74,14.74,0,0,0-23.67-9.41c-9,6.95-19.47,10.86-31.64,8.37a39.85,39.85,0,0,1-17.13-8.47,66.8,66.8,0,0,1-15.31-18.67,14.72,14.72,0,0,0-25.16-.67l-39.15,60.92c-2.85,4.43-5.77,8.94-9.92,12.19-8.89,7-22.35,4.86-30.65-2.43a14.87,14.87,0,0,0-20.52.42c-8.89,9.07-16.48,18.26-21.14,31.23-7.11,19.77-11.41,39.91-11.41,61V842.68A100.58,100.58,0,0,1,728.57,943.27c-1,0-2,0-3,0-144.91.1-263.34,118.49-263.49,263.4-.15,145.75,118,263.94,263.67,263.94A262.54,262.54,0,0,0,887.68,1415a169,169,0,0,0,224.64,0,262.54,262.54,0,0,0,161.9,55.55c145.71,0,263.82-118.19,263.67-263.94C1537.74,1061.74,1419.3,943.34,1274.39,943.25Z"/><path class="cls-1" d="M1300.28,470.36c2.68-.82,5.38-1.6,8.09-2.32l.21-.06.27-.07h0l.45-.09.26-.05c.29-.06.56-.09.83-.12l.42,0h.2a11.08,11.08,0,0,1,6,1.4,11.26,11.26,0,0,1,4.34,15.31l-33,59.14a301.31,301.31,0,0,1,91.8-22,11.25,11.25,0,0,1,5.56,21.44,148.05,148.05,0,0,0-56.31,45.42c62.84-9.12,128.76-2.54,188.21,19.1a11.25,11.25,0,0,1-4.06,21.82c-52.21-1-104.34,22.67-138.93,61.68a199,199,0,0,1,75.6,13.4,11.25,11.25,0,0,1-4.49,21.73c-19.35-.71-38.64,7-52.64,20.21a299.93,299.93,0,0,1,42.3,15.49c1,.46,2,.95,2.92,1.42C1479,765,1524.11,751.6,1557.71,727c34.1-24.93,60.61-61,76.65-104.4,20.41-55.15,21.12-101.75,2.11-138.49-21-40.6-66.13-70.42-134.13-88.65a186.36,186.36,0,0,0-202.06,74.86Z"/><path class="cls-1" d="M1017.42,1266.15a72.17,72.17,0,0,1-17.42-9.83,71.33,71.33,0,0,1-30.57,13.57V1274a30.57,30.57,0,1,0,61.14,0v-4.14A71.93,71.93,0,0,1,1017.42,1266.15Z"/><path class="cls-1" d="M564.63,761.72a299.47,299.47,0,0,1,42.3-15.49c-14-13.25-33.32-20.93-52.64-20.21a11.25,11.25,0,0,1-4.49-21.73,199.19,199.19,0,0,1,75.6-13.4c-34.59-39-86.84-62.69-138.93-61.68a11.25,11.25,0,0,1-4.06-21.82c59.45-21.64,125.36-28.22,188.21-19.1a148.05,148.05,0,0,0-56.31-45.42,11.25,11.25,0,0,1,5.56-21.44,301.31,301.31,0,0,1,91.8,22l-33-59.14a11.26,11.26,0,0,1,9.75-16.74,8.67,8.67,0,0,1,2.3.22l.39.09.06,0,.29.08.18.05c1.37.36,2.73.74,4.09,1.13-40.92-51-101.16-98.17-146.17-99.68-18.91-.64-33.93,6.57-45.89,22-25.82,33.37-51.2,59-73.59,81.53C378.77,524.74,347.82,556,366,623.63,389.15,710.19,473.73,769,564.63,761.72Z"/><path class="cls-1" d="M748.31,874.51c18.3,0,33.75-22.33,33.75-48.75S766.61,777,748.31,777s-33.75,22.32-33.75,48.75S730,874.51,748.31,874.51Z"/><path class="cls-1" d="M1567.3,747.79c-29,20.29-61.36,32.31-95.18,35.52q8.54,6.2,16.45,13a8.53,8.53,0,0,1-10.83,13.17l0,0a221.6,221.6,0,0,0-24.17-16.68,198.69,198.69,0,0,0-26.1-13c-18-7.4-37.21-12.37-56.72-16.37h-.06c-.19,0-.35-.1-.53-.15l-.14,0a6.14,6.14,0,0,1-1.15-.43,11,11,0,0,1-1.8-.93,11.25,11.25,0,0,1-3.25-15.58,94.87,94.87,0,0,1,35.31-31.75,176.22,176.22,0,0,0-47.17.77,11.25,11.25,0,0,1-11.1-17.29c26.87-40.93,69.68-71,116.92-84.09a368,368,0,0,0-149,.9,11.26,11.26,0,0,1-12.38-16.17,170.23,170.23,0,0,1,35.1-46.17A278,278,0,0,0,1266.59,579a11.25,11.25,0,0,1-15.37-15.27l37-66.35a210.48,210.48,0,0,0-87.6,61.19h0a8.52,8.52,0,0,1-13.23-10.75,229.23,229.23,0,0,1,77.84-63.46h0A222.36,222.36,0,0,1,1311,424c-46.88-37.17-95.5-66.16-144.67-86.2-54.92-22.4-110.88-33.75-166.3-33.75-55.79,0-112.12,11.5-167.4,34.2-49.53,20.32-98.49,49.72-145.67,87.42,18.68,19.15,36.34,40.4,49.06,59.33v0a229.14,229.14,0,0,1,76.57,62.81,8.53,8.53,0,0,1-13.22,10.77l0,0a210.42,210.42,0,0,0-87.6-61.19l37,66.35A11.25,11.25,0,0,1,733.41,579a278,278,0,0,0-64.84-26.51,170,170,0,0,1,35.1,46.17,11.26,11.26,0,0,1-12.38,16.17,368,368,0,0,0-149-.9c47.25,13.1,90,43.16,116.92,84.09a11.25,11.25,0,0,1-11.1,17.29,176.22,176.22,0,0,0-47.17-.77,95,95,0,0,1,35.32,31.75A11.26,11.26,0,0,1,633,761.91c-.34.22-.7.4-1.05.58a7.12,7.12,0,0,1-2.08.85l-.45.11-.1,0c-19.51,4-38.69,9-56.72,16.37a198.69,198.69,0,0,0-26.1,13,221.6,221.6,0,0,0-24.17,16.68h0a8.53,8.53,0,0,1-10.85-13.15c5.2-4.49,10.63-8.79,16.24-12.88a208.13,208.13,0,0,1-96.16-33.36c-82,159.1-129,336.1-129,487,0,94.75,17.7,170.54,54.11,231.71,33.17,55.71,81.27,98,147.06,129.27q13.17,6.26,27.06,11.8c18.29-55.27,70.43-95.27,131.75-95.27h18.21c76.5,0,138.74,62.24,138.74,138.73a66.26,66.26,0,0,1-.95,11.08c59.55,3.69,120.8,4.68,181.52,4.68s122-1,181.52-4.68a66.24,66.24,0,0,1-1-11.07c0-76.5,62.24-138.74,138.74-138.74h18.21c61.32,0,113.47,40,131.75,95.27q13.86-5.56,27.06-11.8c65.79-31.28,113.89-73.56,147.06-129.27,36.41-61.17,54.11-137,54.11-231.71C1697.5,1085.32,1650.11,907.55,1567.3,747.79Zm-315.61,6.72c31,0,56.25,32,56.25,71.25S1282.71,897,1251.69,897s-56.25-32-56.25-71.25S1220.67,754.51,1251.69,754.51Zm-503.38,0c31,0,56.25,32,56.25,71.25S779.33,897,748.31,897s-56.25-32-56.25-71.25S717.29,754.51,748.31,754.51ZM1048.57,1274a48.57,48.57,0,1,1-97.14,0v-3.1a70.94,70.94,0,0,1-46.25-21.57,6.82,6.82,0,0,1,9.59-9.69l.05,0a57.07,57.07,0,0,0,18.64,11.81,55.69,55.69,0,0,0,42.66-1,54.77,54.77,0,0,0,10.44-6.11l-65.43-62.92-.13-.12a42.75,42.75,0,1,1,60.46-60.46l18.54,18.54,18.54-18.54a42.8,42.8,0,0,1,60.45,0h0a42.81,42.81,0,0,1,0,60.46l-.13.12-65.43,62.92a54.77,54.77,0,0,0,10.44,6.11,55.69,55.69,0,0,0,42.66,1,57.07,57.07,0,0,0,18.64-11.81l0,0a6.82,6.82,0,0,1,9.6,9.68,70.94,70.94,0,0,1-46.25,21.57Z"/><path class="cls-1" d="M1251.69,874.51c18.29,0,33.75-22.33,33.75-48.75S1270,777,1251.69,777s-33.75,22.32-33.75,48.75S1233.4,874.51,1251.69,874.51Z"/><path class="cls-6" d="M1585.35,733.74c30.77-26.63,54.83-62,70.11-103.3,22.7-61.33,23-114,1-156.62-24-46.46-73.92-80.12-148.3-100.05a209.15,209.15,0,0,0-140,11.41,203.7,203.7,0,0,0-39.72,24c-49.62-39.82-101.27-70.84-153.62-92.19-57.64-23.5-116.45-35.41-174.8-35.41-58.74,0-117.94,12.07-176,35.88C771.79,338.93,720.24,370,670.72,409.89c-6.5-6-13-11.68-19.29-16.73C626,372.8,587.79,348.26,550.29,347c-25.92-.87-48.2,9.77-64.44,30.75-25,32.28-49.83,57.34-71.77,79.45-53,53.46-91.34,92.08-69.86,172.25A208.46,208.46,0,0,0,413.16,736.6C328.51,899.6,280,1081.72,280,1237.09c0,188.12,70,312.84,214,381.3,10.16,4.83,20.66,9.31,31.39,13.54a140,140,0,0,0-1.65,21.41,66,66,0,0,0,65.89,65.88H594a11.25,11.25,0,0,0,3.81.29,11.89,11.89,0,0,0,1.6-.29H669a11.18,11.18,0,0,0,5.26,0h69.44a11.5,11.5,0,0,0,2.28.33,11,11,0,0,0,3.21-.33h4.37a65.9,65.9,0,0,0,56.93-32.78c62.18,4.08,126.15,5.15,189.53,5.15s127.35-1.07,189.53-5.15a65.9,65.9,0,0,0,56.93,32.78h4.4a11.17,11.17,0,0,0,3.8.29,11.89,11.89,0,0,0,1.6-.29h69.54a11.3,11.3,0,0,0,2.93.31,11.18,11.18,0,0,0,2.33-.31h69.45a11.3,11.3,0,0,0,2.27.33,11,11,0,0,0,3.21-.33h4.37a66,66,0,0,0,65.89-65.89,139.91,139.91,0,0,0-1.65-21.4c10.73-4.23,21.23-8.71,31.39-13.54,144-68.46,214-193.18,214-381.3C1720,1080.66,1671,897.55,1585.35,733.74ZM1377.42,405.68a186.64,186.64,0,0,1,124.92-10.18c68,18.23,113.13,48.05,134.13,88.65,19,36.74,18.3,83.34-2.11,138.49-16,43.37-42.55,79.47-76.65,104.4-33.6,24.56-78.71,38-119.42,36.1-1-.47-1.94-1-2.92-1.42a299.93,299.93,0,0,0-42.3-15.49c14-13.25,33.29-20.92,52.64-20.21a11.25,11.25,0,0,0,4.49-21.73,199,199,0,0,0-75.6-13.4c34.59-39,86.72-62.68,138.93-61.68a11.25,11.25,0,0,0,4.06-21.82c-59.45-21.64-125.37-28.22-188.21-19.1a148.05,148.05,0,0,1,56.31-45.42,11.25,11.25,0,0,0-5.56-21.44,301.31,301.31,0,0,0-91.8,22l33-59.14A11.26,11.26,0,0,0,1317,469a11.08,11.08,0,0,0-6-1.4h-.2l-.42,0c-.27,0-.54.06-.83.12l-.26.05-.45.09h0l-.27.07-.21.06c-2.71.72-5.41,1.5-8.09,2.32A187.35,187.35,0,0,1,1377.42,405.68ZM366,623.63c-18.13-67.68,12.82-98.89,64.11-150.58,22.39-22.57,47.77-48.16,73.59-81.53,12-15.46,27-22.67,45.89-22,45,1.51,105.25,48.65,146.17,99.68-1.36-.39-2.72-.77-4.09-1.13l-.18-.05-.29-.08-.06,0-.39-.09a8.67,8.67,0,0,0-2.3-.22,11.26,11.26,0,0,0-9.75,16.74l33,59.14a301.31,301.31,0,0,0-91.8-22,11.25,11.25,0,0,0-5.56,21.44,148.05,148.05,0,0,1,56.31,45.42c-62.85-9.12-128.76-2.54-188.21,19.1a11.25,11.25,0,0,0,4.06,21.82c52.09-1,104.34,22.67,138.93,61.68a199.19,199.19,0,0,0-75.6,13.4A11.25,11.25,0,0,0,554.29,726c19.32-.72,38.63,7,52.64,20.21a299.47,299.47,0,0,0-42.3,15.49C473.73,769,389.15,710.19,366,623.63ZM757.82,1696.51c0-.29,0-.58,0-.86,0-2.16-.06-4.31-.14-6.46s-.15-4.3-.27-6.45c-.47-8.59-1.17-17.18-2.43-25.78-.25-2.14-.66-4.29-1-6.44s-.69-4.29-1.19-6.44l-1.38-6.43-1.71-6.41a111.79,111.79,0,0,0-10.36-25.19,8.52,8.52,0,0,0-15,8.14l.13.26a95.36,95.36,0,0,1,7.37,21.37l1.19,5.73.93,5.84c.34,1.94.53,3.92.76,5.9s.48,3.93.6,5.93c.73,7.94.95,16,.94,24,0,2,0,4-.07,6s-.1,4-.19,6c0,.46,0,.92-.07,1.38H682.52l-2.41-86.47a8.53,8.53,0,0,0-17.05,0l-2.41,86.47H607.24l-.06-1.38c-.09-2-.16-4-.19-6s-.09-4-.08-6c0-8,.21-16.11.94-24,.13-2,.4-4,.61-5.93s.42-4,.76-5.9l.92-5.84,1.2-5.73a94.86,94.86,0,0,1,7.37-21.37l.14-.28a8.52,8.52,0,0,0-15-8.12,112.29,112.29,0,0,0-10.37,25.19l-1.7,6.41-1.38,6.43c-.5,2.15-.83,4.29-1.2,6.44s-.76,4.3-1,6.44c-1.26,8.6-2,17.19-2.43,25.78-.13,2.15-.21,4.3-.27,6.45s-.12,4.3-.15,6.46v.86a43.46,43.46,0,0,1-39.11-43.18A116.36,116.36,0,0,1,662.48,1537.1h18.21a116.37,116.37,0,0,1,116.24,116.24A43.46,43.46,0,0,1,757.82,1696.51Zm695.93-43.17a43.46,43.46,0,0,1-39.11,43.17v-.86c0-2.16-.07-4.31-.15-6.46s-.14-4.3-.27-6.45c-.47-8.59-1.17-17.18-2.43-25.78-.25-2.14-.66-4.29-1-6.44s-.7-4.29-1.2-6.44l-1.38-6.43-1.7-6.41a112.29,112.29,0,0,0-10.37-25.19,8.52,8.52,0,0,0-15,8.14l.13.26a94.86,94.86,0,0,1,7.37,21.37l1.2,5.73.92,5.84c.34,1.94.53,3.92.76,5.9s.48,3.93.61,5.93c.73,7.94.94,16,.94,24q0,3-.08,6c0,2-.1,4-.19,6l-.06,1.38h-53.41l-2.41-86.47a8.53,8.53,0,0,0-17,0l-2.41,86.47h-53.41c0-.46,0-.92-.07-1.38-.09-2-.16-4-.19-6s-.09-4-.07-6c0-8,.21-16.11.94-24,.12-2,.39-4,.6-5.93s.42-4,.76-5.9l.93-5.84,1.19-5.73a95.36,95.36,0,0,1,7.37-21.37l.14-.28a8.52,8.52,0,0,0-15-8.12,111.79,111.79,0,0,0-10.36,25.19l-1.71,6.41-1.38,6.43c-.5,2.15-.83,4.29-1.19,6.44s-.77,4.3-1,6.44c-1.26,8.6-2,17.19-2.43,25.78q-.18,3.23-.27,6.45c-.08,2.15-.12,4.3-.14,6.46,0,.28,0,.57,0,.86a43.46,43.46,0,0,1-39.11-43.18,116.36,116.36,0,0,1,116.24-116.23h18.21A116.37,116.37,0,0,1,1453.75,1653.34Zm42.58-55.27q-13.17,6.26-27.06,11.8c-18.28-55.27-70.43-95.27-131.75-95.27h-18.21c-76.5,0-138.74,62.24-138.74,138.74a66.24,66.24,0,0,0,1,11.07c-59.55,3.69-120.8,4.68-181.52,4.68s-122-1-181.52-4.68a66.26,66.26,0,0,0,.95-11.08c0-76.49-62.24-138.73-138.74-138.73H662.48c-61.32,0-113.46,40-131.75,95.27q-13.86-5.56-27.06-11.8c-65.79-31.28-113.89-73.56-147.06-129.27-36.41-61.17-54.11-137-54.11-231.71,0-150.89,47-327.89,129-487a208.13,208.13,0,0,0,96.16,33.36c-5.61,4.09-11,8.39-16.24,12.88a8.53,8.53,0,0,0,10.85,13.15h0a221.6,221.6,0,0,1,24.17-16.68,198.69,198.69,0,0,1,26.1-13c18-7.4,37.21-12.37,56.72-16.37l.1,0,.45-.11a7.12,7.12,0,0,0,2.08-.85c.35-.18.71-.36,1.05-.58a11.26,11.26,0,0,0,3.26-15.58,95,95,0,0,0-35.32-31.75,176.22,176.22,0,0,1,47.17.77,11.25,11.25,0,0,0,11.1-17.29c-26.87-40.93-69.67-71-116.92-84.09a368,368,0,0,1,149,.9,11.26,11.26,0,0,0,12.38-16.17,170,170,0,0,0-35.1-46.17A278,278,0,0,1,733.41,579a11.25,11.25,0,0,0,15.37-15.27l-37-66.35a210.42,210.42,0,0,1,87.6,61.19l0,0a8.53,8.53,0,0,0,13.22-10.77A229.14,229.14,0,0,0,736,485.06v0c-12.72-18.93-30.38-40.18-49.06-59.33,47.18-37.7,96.14-67.1,145.67-87.42,55.28-22.7,111.61-34.2,167.4-34.2,55.42,0,111.38,11.35,166.3,33.75,49.17,20,97.79,49,144.67,86.2a222.36,222.36,0,0,0-45.69,60.36h0a229.23,229.23,0,0,0-77.84,63.46,8.52,8.52,0,0,0,13.23,10.75h0a210.48,210.48,0,0,1,87.6-61.19l-37,66.35A11.25,11.25,0,0,0,1266.59,579a278,278,0,0,1,64.84-26.51,170.23,170.23,0,0,0-35.1,46.17,11.26,11.26,0,0,0,12.38,16.17,368,368,0,0,1,149-.9c-47.24,13.11-90,43.16-116.92,84.09a11.25,11.25,0,0,0,11.1,17.29,176.22,176.22,0,0,1,47.17-.77,94.87,94.87,0,0,0-35.31,31.75,11.25,11.25,0,0,0,3.25,15.58,11,11,0,0,0,1.8.93,6.14,6.14,0,0,0,1.15.43l.14,0c.18.05.34.11.53.15h.06c19.51,4,38.69,9,56.72,16.37a198.69,198.69,0,0,1,26.1,13,221.6,221.6,0,0,1,24.17,16.68l0,0a8.53,8.53,0,0,0,10.83-13.17q-7.9-6.83-16.45-13c33.82-3.21,66.18-15.23,95.18-35.52,82.81,159.76,130.2,337.53,130.2,489.3,0,94.75-17.7,170.54-54.11,231.71C1610.22,1524.51,1562.12,1566.79,1496.33,1598.07Z"/><path class="cls-6" d="M1000,1327.1A53.13,53.13,0,0,1,946.94,1275a75.49,75.49,0,0,1-45-22.52,11.32,11.32,0,0,1,15.92-16.09,52.74,52.74,0,0,0,17.22,10.93,51.54,51.54,0,0,0,18.58,3.46l1.23,0a51.43,51.43,0,0,0,19.4-4.36,49.43,49.43,0,0,0,5.11-2.64l-61.61-59.25a47.25,47.25,0,0,1,66.85-66.79l15.36,15.35,15.36-15.35a46.92,46.92,0,0,1,33.4-13.82h0a47.23,47.23,0,0,1,33.41,80.64l-61.58,59.22a50.31,50.31,0,0,0,5.1,2.64,51.57,51.57,0,0,0,19.42,4.36l1.21,0h0a51.54,51.54,0,0,0,18.58-3.46,52.54,52.54,0,0,0,17.16-10.88,11.32,11.32,0,0,1,16,16,75.5,75.5,0,0,1-45,22.53A53.13,53.13,0,0,1,1000,1327.1Z"/><path class="cls-6" d="M968.73,1133.64l24.91,24.9a9,9,0,0,0,12.72,0l24.9-24.9a24.75,24.75,0,0,1,35.07,34.94L1000,1232.36l-66.33-63.78a24.75,24.75,0,0,1,35.06-34.94Z"/><path class="cls-6" d="M1000,1304.6A30.6,30.6,0,0,1,969.43,1274v-4.14a71.33,71.33,0,0,0,30.57-13.57,71.33,71.33,0,0,0,30.57,13.57V1274A30.6,30.6,0,0,1,1000,1304.6Z"/><path class="cls-7" d="M933.67,1168.58l66.33,63.78,66.33-63.78a24.75,24.75,0,0,0-35.07-34.94l-24.9,24.9a9,9,0,0,1-12.72,0l-24.91-24.9a24.75,24.75,0,0,0-35.06,34.94Z"/><path class="cls-8" d="M1029.16,1143.6c10.07-9.21,27.46-9.53,37.11.11a24.7,24.7,0,0,1,6.71,12.46,24.74,24.74,0,0,0-41.72-22.53l-22.72,22.72S1015.19,1156.36,1029.16,1143.6Z"/><path class="cls-8" d="M933.73,1143.72c9.65-9.66,22.24-8.64,32.9-.12a75.09,75.09,0,0,0,24.83,12.76l-22.73-22.72A24.73,24.73,0,0,0,927,1156.18,24.38,24.38,0,0,1,933.73,1143.72Z"/><path class="cls-9" d="M796.93,1653.34A116.37,116.37,0,0,0,680.69,1537.1H662.48a116.36,116.36,0,0,0-116.23,116.23,43.46,43.46,0,0,0,39.11,43.18v-.86c0-2.16.07-4.31.15-6.46s.14-4.3.27-6.45c.47-8.59,1.17-17.18,2.43-25.78.25-2.14.66-4.29,1-6.44s.7-4.29,1.2-6.44l1.38-6.43,1.7-6.41a112.29,112.29,0,0,1,10.37-25.19,8.52,8.52,0,0,1,15,8.12l-.14.28a94.86,94.86,0,0,0-7.37,21.37l-1.2,5.73-.92,5.84c-.34,1.94-.53,3.92-.76,5.9s-.48,3.93-.61,5.93c-.73,7.94-.94,16-.94,24q0,3,.08,6c0,2,.1,4,.19,6l.06,1.38h53.41l2.41-86.47a8.53,8.53,0,0,1,17.05,0l2.41,86.47h53.41c0-.46.05-.92.07-1.38.09-2,.16-4,.19-6s.09-4,.07-6c0-8-.21-16.11-.94-24-.12-2-.39-4-.6-5.93s-.42-4-.76-5.9l-.93-5.84-1.19-5.73a95.36,95.36,0,0,0-7.37-21.37l-.13-.26a8.52,8.52,0,0,1,15-8.14,111.79,111.79,0,0,1,10.36,25.19l1.71,6.41,1.38,6.43c.5,2.15.83,4.29,1.19,6.44s.77,4.3,1,6.44c1.26,8.6,2,17.19,2.43,25.78q.18,3.23.27,6.45c.08,2.15.12,4.3.14,6.46,0,.28,0,.57,0,.86A43.46,43.46,0,0,0,796.93,1653.34Z"/><path class="cls-9" d="M1337.52,1537.1h-18.21a116.36,116.36,0,0,0-116.24,116.23,43.46,43.46,0,0,0,39.11,43.18c0-.29,0-.58,0-.86,0-2.16.06-4.31.14-6.46s.15-4.3.27-6.45c.47-8.59,1.17-17.18,2.43-25.78.25-2.14.66-4.29,1-6.44s.69-4.29,1.19-6.44l1.38-6.43,1.71-6.41a111.79,111.79,0,0,1,10.36-25.19,8.52,8.52,0,0,1,15,8.12l-.14.28a95.36,95.36,0,0,0-7.37,21.37l-1.19,5.73-.93,5.84c-.34,1.94-.53,3.92-.76,5.9s-.48,3.93-.6,5.93c-.73,7.94-1,16-.94,24,0,2,0,4,.07,6s.1,4,.19,6c0,.46,0,.92.07,1.38h53.41l2.41-86.47a8.53,8.53,0,0,1,17,0l2.41,86.47h53.41l.06-1.38c.09-2,.16-4,.19-6s.09-4,.08-6c0-8-.21-16.11-.94-24-.13-2-.4-4-.61-5.93s-.42-4-.76-5.9l-.92-5.84-1.2-5.73a94.86,94.86,0,0,0-7.37-21.37l-.13-.26a8.52,8.52,0,0,1,15-8.14,112.29,112.29,0,0,1,10.37,25.19l1.7,6.41,1.38,6.43c.5,2.15.83,4.29,1.2,6.44s.76,4.3,1,6.44c1.26,8.6,2,17.19,2.43,25.78.13,2.15.21,4.3.27,6.45s.12,4.3.15,6.46v.86a43.46,43.46,0,0,0,39.11-43.17A116.37,116.37,0,0,0,1337.52,1537.1Z"/><path class="cls-10" d="M662.48,1565.7h18.21a116.41,116.41,0,0,1,114.87,98.42,43.09,43.09,0,0,0,1.37-10.78A116.37,116.37,0,0,0,680.69,1537.1H662.48a116.36,116.36,0,0,0-116.23,116.23,43.11,43.11,0,0,0,1.37,10.79A116.41,116.41,0,0,1,662.48,1565.7Z"/><path class="cls-10" d="M1319.31,1565.7h18.21a116.41,116.41,0,0,1,114.86,98.42,43.09,43.09,0,0,0,1.37-10.78,116.37,116.37,0,0,0-116.23-116.24h-18.21a116.36,116.36,0,0,0-116.24,116.23,43.11,43.11,0,0,0,1.37,10.79A116.41,116.41,0,0,1,1319.31,1565.7Z"/><ellipse class="cls-11" cx="1251.69" cy="825.76" rx="38.25" ry="53.25"/><path class="cls-6" d="M1251.69,897c31,0,56.25-32,56.25-71.25s-25.23-71.25-56.25-71.25-56.25,32-56.25,71.25S1220.67,897,1251.69,897Zm0-120c18.29,0,33.75,22.32,33.75,48.75s-15.46,48.75-33.75,48.75-33.75-22.33-33.75-48.75S1233.4,777,1251.69,777Z"/><ellipse class="cls-11" cx="748.31" cy="825.76" rx="38.25" ry="53.25"/><path class="cls-6" d="M748.31,897c31,0,56.25-32,56.25-71.25s-25.23-71.25-56.25-71.25-56.25,32-56.25,71.25S717.29,897,748.31,897Zm0-120c18.3,0,33.75,22.32,33.75,48.75s-15.45,48.75-33.75,48.75-33.75-22.33-33.75-48.75S730,777,748.31,777Z"/><path class="cls-12" d="M1483,695.21c-6-12-22.5-13.5-36-19.5,22.5-24,57-21,82.5-40.5,16.5-13.5,9-34.5-7.5-42-40.5-16.5-85.5-16.5-123-37.5,9-9,19.5-22.5,9-31.5-21-24-57-9-85.5-18-4.65-1.86-5.84-7.17-6.07-13.08l-28.1,50.33a301.31,301.31,0,0,1,91.8-22,11.25,11.25,0,0,1,5.56,21.44,148.05,148.05,0,0,0-56.31,45.42c62.84-9.12,128.76-2.54,188.21,19.1a11.25,11.25,0,0,1-4.06,21.82c-52.21-1-104.34,22.67-138.93,61.68a199,199,0,0,1,75.6,13.4,11.25,11.25,0,0,1-4.49,21.73c-19.35-.71-38.64,7-52.64,20.21a299.93,299.93,0,0,1,42.3,15.49c1,.46,2,.95,2.92,1.42,27,1.23,56-4.28,82.28-15.3-14.14-2.84-27.91-8.43-40.57-15.13C1465,725.21,1489,708.71,1483,695.21Z"/><path class="cls-9" d="M1564,497.21c-57.28-75.44-167.92-68.9-244.64-26.43a11.25,11.25,0,0,1,2,13.54l-4.92,8.81c.23,5.91,1.42,11.22,6.07,13.08,28.5,9,64.5-6,85.5,18,10.5,9,0,22.5-9,31.5,37.5,21,82.5,21,123,37.5,16.5,7.5,24,28.5,7.5,42-25.5,19.5-60,16.5-82.5,40.5,13.5,6,30,7.5,36,19.5,6,13.5-18,30-3,37.5,12.66,6.7,26.43,12.29,40.57,15.13a183.75,183.75,0,0,0,37.14-20.8A205.4,205.4,0,0,0,1590,697.51C1601.9,629,1607.46,556,1564,497.21Z"/><path class="cls-12" d="M1636.47,484.15c-21-40.6-66.13-70.42-134.13-88.65a186.36,186.36,0,0,0-202.06,74.86c2.68-.82,5.38-1.6,8.09-2.32l.21-.06.27-.07h0l.45-.09.26-.05c.29-.06.56-.09.83-.12l.42,0h.2a11.08,11.08,0,0,1,6,1.4,11.23,11.23,0,0,1,2.35,1.77c76.72-42.47,187.36-49,244.64,26.43,43.46,58.8,37.9,131.75,26,200.3a235.38,235.38,0,0,0,44.33-74.87C1654.77,567.49,1655.48,520.89,1636.47,484.15Z"/><path class="cls-9" d="M536.5,753.71c-4.5-25.5-39-36-21-67.5,3-4.5,4.5-12-1.5-15-25.5-9-64.5-24-52.5-52.5,18-43.5,84-31.5,120-61.5,9-7.5-6-24,1.5-36,22.5-28.5,55.5-16.5,85.5-24,4.3-1.07,8.61-4.46,12.91-8l-2.76-4.93a11.25,11.25,0,0,1,.35-11.55c-92.33-40.35-200.81-4.58-274.5,60.44-31.54,28.68-35.07,67.7-33.08,107.38C397.1,708.76,462,756.29,535.29,761.77A16.38,16.38,0,0,0,536.5,753.71Z"/><path class="cls-12" d="M482.41,607.39c59.45-21.64,125.36-28.22,188.21-19.1a148.05,148.05,0,0,0-56.31-45.42,11.25,11.25,0,0,1,5.56-21.44,301.31,301.31,0,0,1,91.8,22l-30.26-54.21c-4.3,3.5-8.61,6.89-12.91,8-30,7.5-63-4.5-85.5,24-7.5,12,7.5,28.5-1.5,36-36,30-102,18-120,61.5-12,28.5,27,43.5,52.5,52.5,6,3,4.5,10.5,1.5,15-18,31.5,16.5,42,21,67.5a16.38,16.38,0,0,1-1.21,8.06,190.35,190.35,0,0,0,29.34,0,299.47,299.47,0,0,1,42.3-15.49c-14-13.25-33.32-20.93-52.64-20.21a11.25,11.25,0,0,1-4.49-21.73,199.19,199.19,0,0,1,75.6-13.4c-34.59-39-86.84-62.69-138.93-61.68a11.25,11.25,0,0,1-4.06-21.82Z"/><path class="cls-12" d="M549.54,369.49c-18.91-.64-33.93,6.57-45.89,22-25.82,33.37-51.2,59-73.59,81.53C378.77,524.74,347.82,556,366,623.63q2.32,8.67,5.47,17c-2-39.68,1.54-78.7,33.08-107.38,73.69-65,182.17-100.79,274.5-60.44a11.25,11.25,0,0,1,9.4-5.19,8.67,8.67,0,0,1,2.3.22l.39.09.06,0,.29.08.18.05c1.37.36,2.73.74,4.09,1.13C654.79,418.14,594.55,371,549.54,369.49Z"/><path class="cls-13" d="M1154.24,1149.5a635.67,635.67,0,0,1,120-35.63,680.62,680.62,0,0,1,124.3-12.06,805.55,805.55,0,0,1,124.2,9.07,1015.47,1015.47,0,0,1,121.43,26.06,8.53,8.53,0,0,1-4.45,16.46h0a998.52,998.52,0,0,0-119.58-24.29,785.33,785.33,0,0,0-121.34-7.53,659.92,659.92,0,0,0-120.43,13,613.29,613.29,0,0,0-115.44,35.66h0a11.25,11.25,0,1,1-8.73-20.74Z"/><path class="cls-13" d="M1135.19,1100.13a1090.87,1090.87,0,0,1,407-106.59,8.52,8.52,0,0,1,1.15,17,1070.89,1070.89,0,0,0-398.25,109.77,11.25,11.25,0,0,1-10.07-20.13Z"/><path class="cls-13" d="M1156,1199.12a841.45,841.45,0,0,1,441.25,41.74,8.53,8.53,0,0,1-6,16A821.72,821.72,0,0,0,1160,1221.26a11.25,11.25,0,1,1-4.16-22.11Z"/><path class="cls-13" d="M807.88,1170.27a613.29,613.29,0,0,0-115.44-35.66,659.92,659.92,0,0,0-120.43-13,785.46,785.46,0,0,0-121.35,7.53,998.36,998.36,0,0,0-119.57,24.29h0a8.53,8.53,0,0,1-4.46-16.46,1016.31,1016.31,0,0,1,121.43-26.06,805.68,805.68,0,0,1,124.21-9.07,680.51,680.51,0,0,1,124.29,12.06,635.55,635.55,0,0,1,120,35.63,11.25,11.25,0,0,1-8.5,20.83l-.06,0Z"/><path class="cls-13" d="M825.63,1120.32a1071,1071,0,0,0-398.25-109.77,8.52,8.52,0,0,1,1.15-17,1090.77,1090.77,0,0,1,407,106.59,11.25,11.25,0,0,1-9.79,20.25Z"/><path class="cls-13" d="M810.76,1221.26a821.71,821.71,0,0,0-431.28,35.58,8.53,8.53,0,0,1-6-16,841.45,841.45,0,0,1,441.25-41.74,11.25,11.25,0,1,1-3.88,22.16Z"/><path class="cls-9" d="M1000,1304.6A30.6,30.6,0,0,1,969.43,1274v-4.14a71.33,71.33,0,0,0,30.57-13.57,71.33,71.33,0,0,0,30.57,13.57V1274A30.6,30.6,0,0,1,1000,1304.6Z"/><path class="cls-12" d="M1017.42,1266.15a72.17,72.17,0,0,1-17.42-9.83,71.62,71.62,0,0,1-30.57,13.57,6.37,6.37,0,0,0,2.91,5.39c5.2,3.21,10.5,2.63,15.69.33a29.56,29.56,0,0,1,24,0c5.16,2.28,10.43,2.87,15.61-.34a6.39,6.39,0,0,0,2.91-5.39A71.93,71.93,0,0,1,1017.42,1266.15Z"/><circle class="cls-14" cx="1251.69" cy="819.76" r="15"/><circle class="cls-14" cx="748.31" cy="819.76" r="15"/></svg>